<svg xmlns="http://www.w3.org/2000/svg" viewBox="0 0 290.86 300"><defs><style>.a{fill:#464646;}</style></defs><title>sign-07</title><path class="a" d="M133.45,73.4l33-20.92L191.4,154.24q3.94,16.77,8,23.84a12.53,12.53,0,0,0,7.86,6.09,12.71,12.71,0,0,0,10-1.42q10.54-6.09,18.93-27.11t6.05-46.22A114.45,114.45,0,0,0,227.2,62.18Q205.66,24.88,167,13.7T87.21,26.31Q33,57.61,21,115T39.2,224.72q19,32.88,47.74,49.38a113.77,113.77,0,0,0,61.35,15.44q32.58-1.07,63-18.6a141.9,141.9,0,0,0,57-60.76q19.58-39.13,12-81l8.46-4.89Q296.2,174,276.49,214.5T215,279.11q-52.15,30.11-107,16.82T21.84,228.28Q-10.6,172.11,5.27,112.45T79.81,18.93Q126.27-7.89,168.24,3.29T233.83,55.4Q257,95.48,250.21,138.22t-42.83,63.56q-15,8.66-25.85,5a29.32,29.32,0,0,1-16.64-13.61q-3.91-6.79-7.64-20.92-.08,58.49-22.55,71.46-11.5,6.65-22.53,1.17T93.3,225.85q-12.33-21.36-16-49.59a134.73,134.73,0,0,1,5-56.81Q91,90.88,105.85,82.31q8.61-5,16.72-2.44t15.69,12.76Zm2.43,29.85q-4.95-8.59-10.66-12.06t-10-1q-11.79,6.81-6.78,47.37T124.92,198a21.24,21.24,0,0,0,7.59,8q4.45,2.61,8.07.52,5.53-3.19,8.88-21.12t-.67-42.34Q144.77,118.65,135.88,103.25Z"/></svg>