<?xml version="1.0" encoding="utf-8"?>
<!-- Generator: Adobe Illustrator 18.0.0, SVG Export Plug-In . SVG Version: 6.00 Build 0)  -->
<!DOCTYPE svg PUBLIC "-//W3C//DTD SVG 1.1//EN" "http://www.w3.org/Graphics/SVG/1.1/DTD/svg11.dtd">
<svg version="1.1" id="Layer_1" xmlns="http://www.w3.org/2000/svg" xmlns:xlink="http://www.w3.org/1999/xlink" x="0px" y="0px"
	 viewBox="0 0 60 60" enable-background="new 0 0 60 60" xml:space="preserve">
<g>
	<path fill="#464646" d="M0,57.9l3.2-5.6c9.2,2.3,17.7,1.8,25.5-1.5C36.5,47.5,42,43,45.4,37.2c2.8-4.9,2.7-8.3-0.5-10.1
		c-0.6-0.3-1.7-0.7-3.2-1.1c-1.3-0.3-2.5-0.7-3.5-1.3c-3.4-1.9-5.6-4.5-6.7-7.8c-1.1-3.3-0.7-6.5,1.1-9.7c2-3.4,4.7-5.6,8.2-6.6
		c3.4-1,6.9-0.5,10.3,1.5c5.3,3.1,8.2,8,8.7,14.8c0.5,6.8-1.1,13.5-4.9,20.1c-5.5,9.5-13.2,16.1-23.1,20S11.3,61,0,57.9z"/>
</g>
</svg>
