<?xml version="1.0" encoding="utf-8"?>
<!-- Generator: Adobe Illustrator 18.0.0, SVG Export Plug-In . SVG Version: 6.00 Build 0)  -->
<!DOCTYPE svg PUBLIC "-//W3C//DTD SVG 1.1//EN" "http://www.w3.org/Graphics/SVG/1.1/DTD/svg11.dtd">
<svg version="1.1" id="Layer_1" xmlns="http://www.w3.org/2000/svg" xmlns:xlink="http://www.w3.org/1999/xlink" x="0px" y="0px"
	 viewBox="0 0 60 60" enable-background="new 0 0 60 60" xml:space="preserve">
<g>
	<path fill="#464646" d="M-217.3,60c6.3-9.3,9.5-19.3,9.5-29.9C-207.9,19-211,9-217.3,0h5c3.1,3.8,5.5,8.3,7.2,13.7
		c1.7,5.4,2.5,10.8,2.5,16.5c0,11.3-3.2,21.2-9.7,29.8H-217.3z"/>
</g>
<g>
	<path fill="#464646" d="M41.7,24.2L56,32.5L55.1,34c-2.1-0.5-4.1-0.6-6.2-0.1c-2,0.4-4.7,2-8.2,4.7c-2.9,2.2-5.2,3.6-6.9,4.4
		c0.4,4.8,1,8,1.9,9.7c0.9,1.7,2,3,3.6,3.9c2.1,1.2,4.3,1.2,6.6-0.2l1.5,0.9c-1.5,1.6-3.4,2.5-5.6,2.7c-2.2,0.2-4.2-0.2-6.2-1.4
		c-4.3-2.5-6.9-6.9-7.7-13.2c-6.4,2.1-11.8,1.9-16.2-0.6c-1.6-0.9-3-2.1-4.2-3.6s-2.1-3.1-2.6-4.9c-0.6-1.8-0.8-3.7-0.6-5.6
		c0.1-1.9,0.8-3.8,1.9-5.6c1.6-2.8,3.7-4.7,6.3-5.7c2.6-1,6.9-1.7,13-2.1C24.7,12,25.3,8,27,5c1.3-2.3,3.4-3.8,6.2-4.6
		c2.8-0.8,5.6-0.4,8.3,1.1c2.4,1.4,4.2,3.3,5.3,5.8c1.1,2.5,1.1,4.8-0.2,7c-2,3.4-7.1,4.9-15.4,4.4c0.4,3.9,0.9,7.6,1.2,11.3
		c0.4,3.7,0.7,7.3,1,10.8c2.3-1,4.3-2.3,6.2-3.8c1.8-1.5,3.1-2.8,3.7-3.8c1.5-2.6,0.6-5-2.6-7.4L41.7,24.2z M25.4,19.1
		c-3.2,0.1-5.9,0.7-8.3,1.9c-2.4,1.2-4.1,2.6-5.1,4.4c-1.6,2.8-2,6-1.2,9.7s2.6,6.4,5.4,8c3.1,1.8,6.8,1.9,11.2,0.4
		c-0.3-4.9-0.6-9.4-0.9-13.5C26.2,25.9,25.9,22.3,25.4,19.1z M31.1,17c6,0,9.8-1.6,11.6-4.6c0.5-0.9,0.9-1.8,1-2.7
		c0.2-0.9,0.2-1.7,0-2.6c-0.2-0.8-0.5-1.6-1-2.2s-1.2-1.2-2-1.7c-1.6-0.9-3.2-1.2-4.8-0.6c-1.6,0.5-2.8,1.5-3.7,3.1
		C31,7.9,30.6,11.7,31.1,17z"/>
</g>
<g>
	<path fill="#464646" d="M-180,57.9l3.2-5.6c9.2,2.3,17.7,1.8,25.5-1.5c7.8-3.2,13.3-7.8,16.7-13.6c2.8-4.9,2.7-8.3-0.5-10.1
		c-0.6-0.3-1.7-0.7-3.2-1.1c-1.3-0.3-2.5-0.7-3.5-1.3c-3.4-1.9-5.6-4.5-6.7-7.8c-1.1-3.3-0.7-6.5,1.1-9.7c2-3.4,4.7-5.6,8.2-6.6
		c3.4-1,6.9-0.5,10.3,1.5c5.3,3.1,8.2,8,8.7,14.8c0.5,6.8-1.1,13.5-4.9,20.1c-5.5,9.5-13.2,16.1-23.1,20
		C-158.1,60.7-168.7,61-180,57.9z"/>
</g>
<g>
	<path fill="#464646" d="M-62.5,60L-98.1,0h12.2l25.8,43.5L-34.4,0h12.5L-58,60H-62.5z"/>
</g>
</svg>
